# xmcd CD database file
#
# Track frame offsets:
#	150
#	20800
#	48349
#	60417
#	94161
#	109217
#	134392
#	135378
#	151008
#	179033
#	208207
#	218948
#	248326
#	277199
#
# Disc length: 4013 seconds
#
# Revision: 0
# Processed by: cddbd v1.5.1PL0 Copyright (c) Steve Scherf et al.
# Submitted via: CDex 1.51
#
DISCID=ce0fab0e
DTITLE=Up Ensemble - Up Ensemble
DYEAR=2003
DGENRE=Jazz
TTITLE0=Black Hole Sun
TTITLE1=Where or When
TTITLE2=Queen Bee
TTITLE3=Poinciana
TTITLE4=I Only Have I's 4 U
TTITLE5=Norwegian Wood
TTITLE6=Intermission
TTITLE7=Clarksville
TTITLE8=Favela
TTITLE9=A Night in Tunisia
TTITLE10=Fugue in C Major
TTITLE11=Isn't She Lovely
TTITLE12=Kabsha
TTITLE13=Pure Imagination
EXTD=YEAR: 2003
EXTT0=
EXTT1=
EXTT2=
EXTT3=
EXTT4=
EXTT5=
EXTT6=
EXTT7=
EXTT8=
EXTT9=
EXTT10=
EXTT11=
EXTT12=
EXTT13=
PLAYORDER=
